
<global>
amp_veltrack=0
ampeg_release=0.85
xfin_hicc1=127
xfout_hicc1=127
xfout_locc1=127
</global>

<group>
group_label=RR1
seq_length=4
seq_position=1

<region>
hikey=A#5
hivel=127
lokey=A#5
lovel=46
offset=985
pitch_keycenter=B5
sample=Piccolo_staccato_FF_A#4_RR1.opus
</region>

<region>
hivel=127
key=A#6
lovel=46
offset=37
sample=Piccolo_staccato_FF_A#5_RR1.opus
</region>

<region>
hivel=127
key=A5
lovel=46
offset=343
sample=Piccolo_staccato_FF_A4_RR1.opus
</region>

<region>
hivel=127
key=A6
lovel=46
offset=68
sample=Piccolo_staccato_FF_A5_RR1.opus
</region>

<region>
hivel=127
key=B5
lovel=46
offset=296
sample=Piccolo_staccato_FF_B4_RR1.opus
</region>

<region>
hivel=127
key=B6
lovel=46
sample=Piccolo_staccato_FF_B5_RR1.opus
</region>

<region>
hivel=127
key=C#6
lovel=46
sample=Piccolo_staccato_FF_C#5_RR1.opus
</region>

<region>
hivel=127
key=C#7
lovel=46
offset=27
sample=Piccolo_staccato_FF_C#6_RR1.opus
</region>

<region>
hivel=127
key=C6
lovel=46
offset=78
sample=Piccolo_staccato_FF_C5_RR1.opus
</region>

<region>
hivel=127
key=C7
lovel=46
offset=192
sample=Piccolo_staccato_FF_C6_RR1.opus
</region>

<region>
hivel=127
key=D#5
lovel=46
offset=57
sample=Piccolo_staccato_FF_D#4_RR1.opus
</region>

<region>
hikey=D#6
hivel=127
lokey=D#6
lovel=46
offset=592
pitch_keycenter=E6
sample=Piccolo_staccato_FF_D#5_RR1.opus
</region>

<region>
hivel=127
key=D#7
lovel=46
offset=186
sample=Piccolo_staccato_FF_D#6_RR1.opus
</region>

<region>
hivel=127
key=D5
lovel=46
offset=2514
sample=Piccolo_staccato_FF_D4_RR1.opus
</region>

<region>
hivel=127
key=D6
lovel=46
offset=355
sample=Piccolo_staccato_FF_D5_RR1.opus
</region>

<region>
hivel=127
key=D7
lovel=46
sample=Piccolo_staccato_FF_D6_RR1.opus
</region>

<region>
hivel=127
key=E5
lovel=46
offset=40
sample=Piccolo_staccato_FF_E4_RR1.opus
</region>

<region>
hivel=127
key=E6
lovel=46
offset=194
sample=Piccolo_staccato_FF_E5_RR1.opus
</region>

<region>
hivel=127
key=E7
lovel=46
offset=60
sample=Piccolo_staccato_FF_E6_RR1.opus
</region>

<region>
hivel=127
key=F#5
lovel=46
offset=243
sample=Piccolo_staccato_FF_F#4_RR1.opus
</region>

<region>
hivel=127
key=F#6
lovel=46
offset=399
sample=Piccolo_staccato_FF_F#5_RR1.opus
</region>

<region>
hivel=127
key=F#7
lovel=46
sample=Piccolo_staccato_FF_F#6_RR1.opus
tune=-97
</region>

<region>
hivel=127
key=F5
lovel=46
sample=Piccolo_staccato_FF_F4_RR1.opus
</region>

<region>
hivel=127
key=F6
lovel=46
offset=156
sample=Piccolo_staccato_FF_F5_RR1.opus
</region>

<region>
hivel=127
key=F7
lovel=46
offset=88
sample=Piccolo_staccato_FF_F6_RR1.opus
</region>

<region>
hivel=127
key=G#5
lovel=46
offset=108
sample=Piccolo_staccato_FF_G#4_RR1.opus
</region>

<region>
hivel=127
key=G#6
lovel=46
offset=58
sample=Piccolo_staccato_FF_G#5_RR1.opus
</region>

<region>
hivel=127
key=G#7
lovel=46
offset=122
sample=Piccolo_staccato_FF_G#6_RR1.opus
tune=-45
</region>

<region>
hivel=127
key=G5
lovel=46
offset=78
sample=Piccolo_staccato_FF_G4_RR1.opus
</region>

<region>
hivel=127
key=G6
lovel=46
offset=264
sample=Piccolo_staccato_FF_G5_RR1.opus
</region>

<region>
hivel=127
key=G7
lovel=46
offset=80
sample=Piccolo_staccato_FF_G6_RR1.opus
</region>

<region>
hivel=45
key=A#5
lovel=0
offset=251
sample=Piccolo_staccato_PP_A#4_RR1.opus
</region>

<region>
hivel=45
key=A#6
lovel=0
offset=900
sample=Piccolo_staccato_PP_A#5_RR1.opus
</region>

<region>
hivel=45
key=A5
lovel=0
offset=595
sample=Piccolo_staccato_PP_A4_RR1.opus
</region>

<region>
hivel=45
key=A6
lovel=0
offset=969
sample=Piccolo_staccato_PP_A5_RR1.opus
</region>

<region>
hivel=45
key=B5
lovel=0
offset=92
sample=Piccolo_staccato_PP_B4_RR1.opus
</region>

<region>
hivel=45
key=B6
lovel=0
offset=492
sample=Piccolo_staccato_PP_B5_RR1.opus
</region>

<region>
hivel=45
key=C#6
lovel=0
offset=599
sample=Piccolo_staccato_PP_C#5_RR1.opus
</region>

<region>
hivel=45
key=C#7
lovel=0
sample=Piccolo_staccato_PP_C#6_RR1.opus
</region>

<region>
hivel=45
key=C6
lovel=0
offset=483
sample=Piccolo_staccato_PP_C5_RR1.opus
</region>

<region>
hivel=45
key=C7
lovel=0
offset=1353
sample=Piccolo_staccato_PP_C6_RR1.opus
</region>

<region>
hivel=45
key=D#5
lovel=0
sample=Piccolo_staccato_PP_D#4_RR1.opus
</region>

<region>
hivel=45
key=D#6
lovel=0
sample=Piccolo_staccato_PP_D#5_RR1.opus
</region>

<region>
hivel=45
key=D#7
lovel=0
offset=487
sample=Piccolo_staccato_PP_D#6_RR1.opus
</region>

<region>
hivel=45
key=D5
lovel=0
offset=743
sample=Piccolo_staccato_PP_D4_RR1.opus
</region>

<region>
hivel=45
key=D6
lovel=0
offset=991
sample=Piccolo_staccato_PP_D5_RR1.opus
</region>

<region>
hivel=45
key=D7
lovel=0
offset=160
sample=Piccolo_staccato_PP_D6_RR1.opus
</region>

<region>
hivel=45
key=E5
lovel=0
sample=Piccolo_staccato_PP_E4_RR1.opus
</region>

<region>
hivel=45
key=E6
lovel=0
offset=311
sample=Piccolo_staccato_PP_E5_RR1.opus
</region>

<region>
hivel=45
key=E7
lovel=0
offset=102
sample=Piccolo_staccato_PP_E6_RR1.opus
</region>

<region>
hivel=45
key=F#5
lovel=0
offset=23
sample=Piccolo_staccato_PP_F#4_RR1.opus
</region>

<region>
hivel=45
key=F#6
lovel=0
offset=1740
sample=Piccolo_staccato_PP_F#5_RR1.opus
</region>

<region>
hivel=45
key=F#7
lovel=0
offset=1062
sample=Piccolo_staccato_PP_F#6_RR1.opus
</region>

<region>
hivel=45
key=F5
lovel=0
offset=343
sample=Piccolo_staccato_PP_F4_RR1.opus
</region>

<region>
hivel=45
key=F6
lovel=0
offset=789
sample=Piccolo_staccato_PP_F5_RR1.opus
</region>

<region>
hikey=F7
hivel=45
lokey=F7
lovel=0
offset=334
pitch_keycenter=F#7
sample=Piccolo_staccato_PP_F6_RR1.opus
</region>

<region>
hivel=45
key=G#5
lovel=0
offset=1192
sample=Piccolo_staccato_PP_G#4_RR1.opus
</region>

<region>
hivel=45
key=G#6
lovel=0
offset=1203
sample=Piccolo_staccato_PP_G#5_RR1.opus
</region>

<region>
hivel=45
key=G#7
lovel=0
offset=122
sample=Piccolo_staccato_PP_G#6_RR1.opus
tune=-44
</region>

<region>
hivel=45
key=G5
lovel=0
offset=1520
sample=Piccolo_staccato_PP_G4_RR1.opus
</region>

<region>
hivel=45
key=G6
lovel=0
offset=1226
sample=Piccolo_staccato_PP_G5_RR1.opus
</region>

<region>
hikey=G7
hivel=45
lokey=G7
lovel=0
offset=1109
pitch_keycenter=G#7
sample=Piccolo_staccato_PP_G6_RR1.opus
</region>
</group>

<group>
group_label=RR2
seq_length=4
seq_position=2

<region>
hivel=127
key=A#5
lovel=46
offset=710
sample=Piccolo_staccato_FF_A#4_RR2.opus
</region>

<region>
hivel=127
key=A#6
lovel=46
offset=244
sample=Piccolo_staccato_FF_A#5_RR2.opus
</region>

<region>
hivel=127
key=A5
lovel=46
offset=126
sample=Piccolo_staccato_FF_A4_RR2.opus
</region>

<region>
hivel=127
key=A6
lovel=46
sample=Piccolo_staccato_FF_A5_RR2.opus
</region>

<region>
hivel=127
key=B5
lovel=46
offset=406
sample=Piccolo_staccato_FF_B4_RR2.opus
</region>

<region>
hivel=127
key=B6
lovel=46
sample=Piccolo_staccato_FF_B5_RR2.opus
</region>

<region>
hikey=C#6
hivel=127
lokey=C#6
lovel=46
pitch_keycenter=D6
sample=Piccolo_staccato_FF_C#5_RR2.opus
</region>

<region>
hivel=127
key=C#7
lovel=46
sample=Piccolo_staccato_FF_C#6_RR2.opus
</region>

<region>
hivel=127
key=C6
lovel=46
offset=63
sample=Piccolo_staccato_FF_C5_RR2.opus
</region>

<region>
hivel=127
key=C7
lovel=46
sample=Piccolo_staccato_FF_C6_RR2.opus
</region>

<region>
hivel=127
key=D#5
lovel=46
offset=138
sample=Piccolo_staccato_FF_D#4_RR2.opus
</region>

<region>
hivel=127
key=D#6
lovel=46
offset=693
sample=Piccolo_staccato_FF_D#5_RR2.opus
</region>

<region>
hivel=127
key=D#7
lovel=46
offset=24
sample=Piccolo_staccato_FF_D#6_RR2.opus
</region>

<region>
hivel=127
key=D5
lovel=46
offset=344
sample=Piccolo_staccato_FF_D4_RR2.opus
</region>

<region>
hivel=127
key=D6
lovel=46
sample=Piccolo_staccato_FF_D5_RR2.opus
</region>

<region>
hivel=127
key=D7
lovel=46
sample=Piccolo_staccato_FF_D6_RR2.opus
</region>

<region>
hivel=127
key=E5
lovel=46
offset=1441
sample=Piccolo_staccato_FF_E4_RR2.opus
</region>

<region>
hivel=127
key=E6
lovel=46
sample=Piccolo_staccato_FF_E5_RR2.opus
</region>

<region>
hivel=127
key=E7
lovel=46
offset=18
sample=Piccolo_staccato_FF_E6_RR2.opus
</region>

<region>
hivel=127
key=F#5
lovel=46
sample=Piccolo_staccato_FF_F#4_RR2.opus
</region>

<region>
hivel=127
key=F#6
lovel=46
offset=104
sample=Piccolo_staccato_FF_F#5_RR2.opus
</region>

<region>
hivel=127
key=F#7
lovel=46
offset=114
sample=Piccolo_staccato_FF_F#6_RR2.opus
tune=-93
</region>

<region>
hivel=127
key=F5
lovel=46
offset=344
sample=Piccolo_staccato_FF_F4_RR2.opus
</region>

<region>
hivel=127
key=F6
lovel=46
offset=61
sample=Piccolo_staccato_FF_F5_RR2.opus
</region>

<region>
hivel=127
key=F7
lovel=46
offset=139
sample=Piccolo_staccato_FF_F6_RR2.opus
</region>

<region>
hivel=127
key=G#5
lovel=46
offset=470
sample=Piccolo_staccato_FF_G#4_RR2.opus
</region>

<region>
hivel=127
key=G#6
lovel=46
offset=121
sample=Piccolo_staccato_FF_G#5_RR2.opus
</region>

<region>
hivel=127
key=G#7
lovel=46
offset=246
sample=Piccolo_staccato_FF_G#6_RR2.opus
tune=-51
</region>

<region>
hivel=127
key=G5
lovel=46
offset=134
sample=Piccolo_staccato_FF_G4_RR2.opus
</region>

<region>
hivel=127
key=G6
lovel=46
sample=Piccolo_staccato_FF_G5_RR2.opus
</region>

<region>
hivel=127
key=G7
lovel=46
sample=Piccolo_staccato_FF_G6_RR2.opus
</region>

<region>
hivel=45
key=A#5
lovel=0
offset=474
sample=Piccolo_staccato_PP_A#4_RR2.opus
</region>

<region>
hivel=45
key=A#6
lovel=0
offset=609
sample=Piccolo_staccato_PP_A#5_RR2.opus
</region>

<region>
hivel=45
key=A5
lovel=0
sample=Piccolo_staccato_PP_A4_RR2.opus
</region>

<region>
hivel=45
key=A6
lovel=0
offset=455
sample=Piccolo_staccato_PP_A5_RR2.opus
</region>

<region>
hivel=45
key=B5
lovel=0
offset=304
sample=Piccolo_staccato_PP_B4_RR2.opus
</region>

<region>
hivel=45
key=B6
lovel=0
offset=600
sample=Piccolo_staccato_PP_B5_RR2.opus
</region>

<region>
hivel=45
key=C#6
lovel=0
offset=295
sample=Piccolo_staccato_PP_C#5_RR2.opus
</region>

<region>
hivel=45
key=C#7
lovel=0
sample=Piccolo_staccato_PP_C#6_RR2.opus
</region>

<region>
hivel=45
key=C6
lovel=0
sample=Piccolo_staccato_PP_C5_RR2.opus
</region>

<region>
hivel=45
key=C7
lovel=0
offset=510
sample=Piccolo_staccato_PP_C6_RR2.opus
</region>

<region>
hivel=45
key=D#5
lovel=0
sample=Piccolo_staccato_PP_D#4_RR2.opus
</region>

<region>
hivel=45
key=D#6
lovel=0
offset=2072
sample=Piccolo_staccato_PP_D#5_RR2.opus
</region>

<region>
hivel=45
key=D#7
lovel=0
sample=Piccolo_staccato_PP_D#6_RR2.opus
</region>

<region>
hivel=45
key=D5
lovel=0
sample=Piccolo_staccato_PP_D4_RR2.opus
</region>

<region>
hivel=45
key=D6
lovel=0
offset=385
sample=Piccolo_staccato_PP_D5_RR2.opus
</region>

<region>
hivel=45
key=D7
lovel=0
offset=8
sample=Piccolo_staccato_PP_D6_RR2.opus
</region>

<region>
hivel=45
key=E5
lovel=0
sample=Piccolo_staccato_PP_E4_RR2.opus
</region>

<region>
hivel=45
key=E6
lovel=0
offset=1198
sample=Piccolo_staccato_PP_E5_RR2.opus
</region>

<region>
hivel=45
key=E7
lovel=0
offset=413
sample=Piccolo_staccato_PP_E6_RR2.opus
</region>

<region>
hivel=45
key=F#5
lovel=0
sample=Piccolo_staccato_PP_F#4_RR2.opus
</region>

<region>
hivel=45
key=F#6
lovel=0
offset=445
sample=Piccolo_staccato_PP_F#5_RR2.opus
</region>

<region>
hivel=45
key=F#7
lovel=0
offset=758
sample=Piccolo_staccato_PP_F#6_RR2.opus
</region>

<region>
hivel=45
key=F5
lovel=0
offset=443
sample=Piccolo_staccato_PP_F4_RR2.opus
</region>

<region>
hivel=45
key=F6
lovel=0
offset=779
sample=Piccolo_staccato_PP_F5_RR2.opus
</region>

<region>
hikey=F7
hivel=45
lokey=F7
lovel=0
offset=110
pitch_keycenter=F#7
sample=Piccolo_staccato_PP_F6_RR2.opus
</region>

<region>
hivel=45
key=G#5
lovel=0
offset=1331
sample=Piccolo_staccato_PP_G#4_RR2.opus
</region>

<region>
hivel=45
key=G#6
lovel=0
offset=665
sample=Piccolo_staccato_PP_G#5_RR2.opus
</region>

<region>
hivel=45
key=G#7
lovel=0
offset=418
sample=Piccolo_staccato_PP_G#6_RR2.opus
tune=-50
</region>

<region>
hivel=45
key=G5
lovel=0
offset=691
sample=Piccolo_staccato_PP_G4_RR2.opus
</region>

<region>
hivel=45
key=G6
lovel=0
offset=1366
sample=Piccolo_staccato_PP_G5_RR2.opus
</region>

<region>
hikey=G7
hivel=45
lokey=G7
lovel=0
offset=357
pitch_keycenter=G#7
sample=Piccolo_staccato_PP_G6_RR2.opus
</region>
</group>

<group>
group_label=RR3
seq_length=4
seq_position=3

<region>
hivel=127
key=A#5
lovel=46
offset=505
sample=Piccolo_staccato_FF_A#4_RR3.opus
</region>

<region>
hivel=127
key=A#6
lovel=46
offset=21
sample=Piccolo_staccato_FF_A#5_RR3.opus
</region>

<region>
hivel=127
key=A5
lovel=46
offset=71
sample=Piccolo_staccato_FF_A4_RR3.opus
</region>

<region>
hivel=127
key=A6
lovel=46
offset=50
sample=Piccolo_staccato_FF_A5_RR3.opus
</region>

<region>
hivel=127
key=B5
lovel=46
offset=9
sample=Piccolo_staccato_FF_B4_RR3.opus
</region>

<region>
hivel=127
key=B6
lovel=46
sample=Piccolo_staccato_FF_B5_RR3.opus
</region>

<region>
hivel=127
key=C#6
lovel=46
offset=4
sample=Piccolo_staccato_FF_C#5_RR3.opus
</region>

<region>
hivel=127
key=C#7
lovel=46
sample=Piccolo_staccato_FF_C#6_RR3.opus
</region>

<region>
hivel=127
key=C6
lovel=46
offset=70
sample=Piccolo_staccato_FF_C5_RR3.opus
</region>

<region>
hivel=127
key=C7
lovel=46
sample=Piccolo_staccato_FF_C6_RR3.opus
</region>

<region>
hivel=127
key=D#5
lovel=46
offset=2243
sample=Piccolo_staccato_FF_D#4_RR3.opus
</region>

<region>
hivel=127
key=D#6
lovel=46
offset=762
sample=Piccolo_staccato_FF_D#5_RR3.opus
</region>

<region>
hivel=127
key=D#7
lovel=46
offset=66
sample=Piccolo_staccato_FF_D#6_RR3.opus
</region>

<region>
hivel=127
key=D5
lovel=46
offset=14
sample=Piccolo_staccato_FF_D4_RR3.opus
</region>

<region>
hivel=127
key=D6
lovel=46
offset=98
sample=Piccolo_staccato_FF_D5_RR3.opus
</region>

<region>
hivel=127
key=D7
lovel=46
sample=Piccolo_staccato_FF_D6_RR3.opus
</region>

<region>
hivel=127
key=E5
lovel=46
offset=177
sample=Piccolo_staccato_FF_E4_RR3.opus
</region>

<region>
hivel=127
key=E6
lovel=46
offset=30
sample=Piccolo_staccato_FF_E5_RR3.opus
</region>

<region>
hivel=127
key=E7
lovel=46
sample=Piccolo_staccato_FF_E6_RR3.opus
</region>

<region>
hivel=127
key=F#5
lovel=46
offset=176
sample=Piccolo_staccato_FF_F#4_RR3.opus
</region>

<region>
hivel=127
key=F#6
lovel=46
offset=356
sample=Piccolo_staccato_FF_F#5_RR3.opus
</region>

<region>
hivel=127
key=F#7
lovel=46
offset=39
sample=Piccolo_staccato_FF_F#6_RR3.opus
tune=-94
</region>

<region>
hivel=127
key=F5
lovel=46
offset=205
sample=Piccolo_staccato_FF_F4_RR3.opus
</region>

<region>
hivel=127
key=F6
lovel=46
offset=240
sample=Piccolo_staccato_FF_F5_RR3.opus
</region>

<region>
hivel=127
key=F7
lovel=46
offset=190
sample=Piccolo_staccato_FF_F6_RR3.opus
</region>

<region>
hivel=127
key=G#5
lovel=46
offset=626
sample=Piccolo_staccato_FF_G#4_RR3.opus
</region>

<region>
hivel=127
key=G#6
lovel=46
offset=148
sample=Piccolo_staccato_FF_G#5_RR3.opus
</region>

<region>
hivel=127
key=G#7
lovel=46
offset=1089
sample=Piccolo_staccato_FF_G#6_RR3.opus
tune=+2
</region>

<region>
hivel=127
key=G5
lovel=46
offset=77
sample=Piccolo_staccato_FF_G4_RR3.opus
</region>

<region>
hivel=127
key=G6
lovel=46
sample=Piccolo_staccato_FF_G5_RR3.opus
</region>

<region>
hivel=127
key=G7
lovel=46
offset=346
sample=Piccolo_staccato_FF_G6_RR3.opus
</region>

<region>
hivel=45
key=A#5
lovel=0
offset=648
sample=Piccolo_staccato_PP_A#4_RR3.opus
</region>

<region>
hivel=45
key=A#6
lovel=0
offset=236
sample=Piccolo_staccato_PP_A#5_RR3.opus
</region>

<region>
hivel=45
key=A5
lovel=0
sample=Piccolo_staccato_PP_A4_RR3.opus
</region>

<region>
hivel=45
key=A6
lovel=0
offset=421
sample=Piccolo_staccato_PP_A5_RR3.opus
</region>

<region>
hivel=45
key=B5
lovel=0
offset=721
sample=Piccolo_staccato_PP_B4_RR3.opus
</region>

<region>
hivel=45
key=B6
lovel=0
offset=301
sample=Piccolo_staccato_PP_B5_RR3.opus
</region>

<region>
hivel=45
key=C#6
lovel=0
offset=597
sample=Piccolo_staccato_PP_C#5_RR3.opus
</region>

<region>
hivel=45
key=C#7
lovel=0
offset=14
sample=Piccolo_staccato_PP_C#6_RR3.opus
</region>

<region>
hivel=45
key=C6
lovel=0
offset=430
sample=Piccolo_staccato_PP_C5_RR3.opus
</region>

<region>
hivel=45
key=C7
lovel=0
offset=565
sample=Piccolo_staccato_PP_C6_RR3.opus
</region>

<region>
hivel=45
key=D#5
lovel=0
sample=Piccolo_staccato_PP_D#4_RR3.opus
</region>

<region>
hivel=45
key=D#6
lovel=0
offset=937
sample=Piccolo_staccato_PP_D#5_RR3.opus
</region>

<region>
hivel=45
key=D#7
lovel=0
offset=230
sample=Piccolo_staccato_PP_D#6_RR3.opus
</region>

<region>
hivel=45
key=D5
lovel=0
sample=Piccolo_staccato_PP_D4_RR3.opus
</region>

<region>
hivel=45
key=D6
lovel=0
offset=296
sample=Piccolo_staccato_PP_D5_RR3.opus
</region>

<region>
hivel=45
key=D7
lovel=0
sample=Piccolo_staccato_PP_D6_RR3.opus
</region>

<region>
hivel=45
key=E5
lovel=0
sample=Piccolo_staccato_PP_E4_RR3.opus
</region>

<region>
hivel=45
key=E6
lovel=0
offset=325
sample=Piccolo_staccato_PP_E5_RR3.opus
</region>

<region>
hivel=45
key=E7
lovel=0
sample=Piccolo_staccato_PP_E6_RR3.opus
</region>

<region>
hivel=45
key=F#5
lovel=0
sample=Piccolo_staccato_PP_F#4_RR3.opus
</region>

<region>
hivel=45
key=F#6
lovel=0
offset=953
sample=Piccolo_staccato_PP_F#5_RR3.opus
</region>

<region>
hivel=45
key=F#7
lovel=0
offset=616
sample=Piccolo_staccato_PP_F#6_RR3.opus
</region>

<region>
hivel=45
key=F5
lovel=0
offset=1471
sample=Piccolo_staccato_PP_F4_RR3.opus
</region>

<region>
hivel=45
key=F6
lovel=0
offset=1629
sample=Piccolo_staccato_PP_F5_RR3.opus
</region>

<region>
hikey=F7
hivel=45
lokey=F7
lovel=0
offset=476
pitch_keycenter=F#7
sample=Piccolo_staccato_PP_F6_RR3.opus
</region>

<region>
hivel=45
key=G#5
lovel=0
offset=1024
sample=Piccolo_staccato_PP_G#4_RR3.opus
</region>

<region>
hivel=45
key=G#6
lovel=0
offset=356
sample=Piccolo_staccato_PP_G#5_RR3.opus
</region>

<region>
hivel=45
key=G#7
lovel=0
offset=828
sample=Piccolo_staccato_PP_G#6_RR3.opus
tune=-98
</region>

<region>
hivel=45
key=G5
lovel=0
offset=791
sample=Piccolo_staccato_PP_G4_RR3.opus
</region>

<region>
hivel=45
key=G6
lovel=0
offset=659
sample=Piccolo_staccato_PP_G5_RR3.opus
</region>

<region>
hikey=G7
hivel=45
lokey=G7
lovel=0
offset=606
pitch_keycenter=G#7
sample=Piccolo_staccato_PP_G6_RR3.opus
</region>
</group>

<group>
group_label=RR4
seq_length=4
seq_position=4

<region>
hivel=127
key=A#5
lovel=46
offset=241
sample=Piccolo_staccato_FF_A#4_RR4.opus
</region>

<region>
hivel=127
key=A#6
lovel=46
sample=Piccolo_staccato_FF_A#5_RR4.opus
</region>

<region>
hivel=127
key=A5
lovel=46
offset=332
sample=Piccolo_staccato_FF_A4_RR4.opus
</region>

<region>
hivel=127
key=A6
lovel=46
sample=Piccolo_staccato_FF_A5_RR4.opus
</region>

<region>
hivel=127
key=B5
lovel=46
offset=165
sample=Piccolo_staccato_FF_B4_RR4.opus
</region>

<region>
hivel=127
key=B6
lovel=46
sample=Piccolo_staccato_FF_B5_RR4.opus
</region>

<region>
hivel=127
key=C#6
lovel=46
sample=Piccolo_staccato_FF_C#5_RR4.opus
</region>

<region>
hivel=127
key=C#7
lovel=46
sample=Piccolo_staccato_FF_C#6_RR4.opus
</region>

<region>
hivel=127
key=C6
lovel=46
offset=111
sample=Piccolo_staccato_FF_C5_RR4.opus
</region>

<region>
hivel=127
key=C7
lovel=46
sample=Piccolo_staccato_FF_C6_RR4.opus
</region>

<region>
hivel=127
key=D#5
lovel=46
offset=299
sample=Piccolo_staccato_FF_D#4_RR4.opus
</region>

<region>
hivel=127
key=D#6
lovel=46
offset=1429
sample=Piccolo_staccato_FF_D#5_RR4.opus
</region>

<region>
hivel=127
key=D#7
lovel=46
offset=94
sample=Piccolo_staccato_FF_D#6_RR4.opus
</region>

<region>
hivel=127
key=D5
lovel=46
offset=12
sample=Piccolo_staccato_FF_D4_RR4.opus
</region>

<region>
hivel=127
key=D6
lovel=46
sample=Piccolo_staccato_FF_D5_RR4.opus
</region>

<region>
hivel=127
key=D7
lovel=46
sample=Piccolo_staccato_FF_D6_RR4.opus
</region>

<region>
hivel=127
key=E5
lovel=46
offset=540
sample=Piccolo_staccato_FF_E4_RR4.opus
</region>

<region>
hivel=127
key=E6
lovel=46
sample=Piccolo_staccato_FF_E5_RR4.opus
</region>

<region>
hivel=127
key=E7
lovel=46
offset=155
sample=Piccolo_staccato_FF_E6_RR4.opus
</region>

<region>
hivel=127
key=F#5
lovel=46
offset=318
sample=Piccolo_staccato_FF_F#4_RR4.opus
</region>

<region>
hivel=127
key=F#6
lovel=46
offset=358
sample=Piccolo_staccato_FF_F#5_RR4.opus
</region>

<region>
hivel=127
key=F#7
lovel=46
sample=Piccolo_staccato_FF_F#6_RR4.opus
tune=-96
</region>

<region>
hivel=127
key=F5
lovel=46
offset=1470
sample=Piccolo_staccato_FF_F4_RR4.opus
</region>

<region>
hivel=127
key=F6
lovel=46
offset=216
sample=Piccolo_staccato_FF_F5_RR4.opus
</region>

<region>
hivel=127
key=F7
lovel=46
offset=243
sample=Piccolo_staccato_FF_F6_RR4.opus
</region>

<region>
hivel=127
key=G#5
lovel=46
offset=467
sample=Piccolo_staccato_FF_G#4_RR4.opus
</region>

<region>
hivel=127
key=G#6
lovel=46
sample=Piccolo_staccato_FF_G#5_RR4.opus
</region>

<region>
hivel=127
key=G#7
lovel=46
offset=379
sample=Piccolo_staccato_FF_G#6_RR4.opus
tune=+4
</region>

<region>
hivel=127
key=G5
lovel=46
sample=Piccolo_staccato_FF_G4_RR4.opus
</region>

<region>
hivel=127
key=G6
lovel=46
sample=Piccolo_staccato_FF_G5_RR4.opus
</region>

<region>
hivel=127
key=G7
lovel=46
offset=60
sample=Piccolo_staccato_FF_G6_RR4.opus
</region>

<region>
hivel=45
key=A#5
lovel=0
offset=589
sample=Piccolo_staccato_PP_A#4_RR4.opus
</region>

<region>
hivel=45
key=A#6
lovel=0
offset=492
sample=Piccolo_staccato_PP_A#5_RR4.opus
</region>

<region>
hivel=45
key=A5
lovel=0
sample=Piccolo_staccato_PP_A4_RR4.opus
</region>

<region>
hivel=45
key=A6
lovel=0
offset=353
sample=Piccolo_staccato_PP_A5_RR4.opus
</region>

<region>
hivel=45
key=B5
lovel=0
offset=573
sample=Piccolo_staccato_PP_B4_RR4.opus
</region>

<region>
hivel=45
key=B6
lovel=0
offset=104
sample=Piccolo_staccato_PP_B5_RR4.opus
</region>

<region>
hivel=45
key=C#6
lovel=0
offset=262
sample=Piccolo_staccato_PP_C#5_RR4.opus
</region>

<region>
hivel=45
key=C#7
lovel=0
offset=219
sample=Piccolo_staccato_PP_C#6_RR4.opus
</region>

<region>
hivel=45
key=C6
lovel=0
sample=Piccolo_staccato_PP_C5_RR4.opus
</region>

<region>
hivel=45
key=C7
lovel=0
offset=293
sample=Piccolo_staccato_PP_C6_RR4.opus
</region>

<region>
hivel=45
key=D#5
lovel=0
offset=40
sample=Piccolo_staccato_PP_D#4_RR4.opus
</region>

<region>
hivel=45
key=D#6
lovel=0
offset=1514
sample=Piccolo_staccato_PP_D#5_RR4.opus
</region>

<region>
hivel=45
key=D#7
lovel=0
offset=303
sample=Piccolo_staccato_PP_D#6_RR4.opus
</region>

<region>
hivel=45
key=D5
lovel=0
sample=Piccolo_staccato_PP_D4_RR4.opus
</region>

<region>
hivel=45
key=D6
lovel=0
offset=914
sample=Piccolo_staccato_PP_D5_RR4.opus
</region>

<region>
hivel=45
key=D7
lovel=0
sample=Piccolo_staccato_PP_D6_RR4.opus
</region>

<region>
hivel=45
key=E5
lovel=0
sample=Piccolo_staccato_PP_E4_RR4.opus
</region>

<region>
hivel=45
key=E6
lovel=0
offset=562
sample=Piccolo_staccato_PP_E5_RR4.opus
</region>

<region>
hivel=45
key=E7
lovel=0
sample=Piccolo_staccato_PP_E6_RR4.opus
</region>

<region>
hivel=45
key=F#5
lovel=0
sample=Piccolo_staccato_PP_F#4_RR4.opus
</region>

<region>
hivel=45
key=F#6
lovel=0
offset=698
sample=Piccolo_staccato_PP_F#5_RR4.opus
</region>

<region>
hivel=45
key=F#7
lovel=0
offset=506
sample=Piccolo_staccato_PP_F#6_RR4.opus
</region>

<region>
hivel=45
key=F5
lovel=0
offset=416
sample=Piccolo_staccato_PP_F4_RR4.opus
</region>

<region>
hivel=45
key=F6
lovel=0
offset=1555
sample=Piccolo_staccato_PP_F5_RR4.opus
</region>

<region>
hikey=F7
hivel=45
lokey=F7
lovel=0
offset=324
pitch_keycenter=F#7
sample=Piccolo_staccato_PP_F6_RR4.opus
</region>

<region>
hivel=45
key=G#5
lovel=0
sample=Piccolo_staccato_PP_G#4_RR4.opus
</region>

<region>
hivel=45
key=G#6
lovel=0
offset=615
sample=Piccolo_staccato_PP_G#5_RR4.opus
</region>

<region>
hivel=45
key=G#7
lovel=0
offset=358
sample=Piccolo_staccato_PP_G#6_RR4.opus
tune=-93
</region>

<region>
hivel=45
key=G5
lovel=0
offset=1206
sample=Piccolo_staccato_PP_G4_RR4.opus
</region>

<region>
hivel=45
key=G6
lovel=0
offset=1178
sample=Piccolo_staccato_PP_G5_RR4.opus
</region>

<region>
hikey=G7
hivel=45
lokey=G7
lovel=0
offset=748
pitch_keycenter=G#7
sample=Piccolo_staccato_PP_G6_RR4.opus
</region>
</group>